<?xml version="1.0" encoding="utf-8"?>
<!-- Generator: Adobe Illustrator 16.0.0, SVG Export Plug-In . SVG Version: 6.00 Build 0)  -->
<!DOCTYPE svg PUBLIC "-//W3C//DTD SVG 1.1//EN" "http://www.w3.org/Graphics/SVG/1.1/DTD/svg11.dtd">
<svg version="1.1" id="Layer_1" xmlns="http://www.w3.org/2000/svg" xmlns:xlink="http://www.w3.org/1999/xlink" x="0px" y="0px"
	 width="300px" height="200px" viewBox="0 0 300 200" enable-background="new 0 0 300 200" xml:space="preserve">
<g>
	<g>
		<g>
			<path d="M85.235,85.459H51.449l-7.293,20.405H23.61l34.595-94.602h20.276l34.595,94.602H92.532L85.235,85.459z M57.533,69.376
				h21.483L68.207,38.834L57.533,69.376z"/>
			<path d="M175.712,58.158c8.38,3.648,12.841,10.138,12.841,20.813c0,18.785-10.139,26.894-32.434,26.894H120.71V11.263h35.409
				c20.406,0,31.219,8.245,31.219,24.596C187.338,46.404,183.283,53.428,175.712,58.158z M139.762,50.591h13.786
				c9.735,0,14.734-3.516,14.734-12.302c0-7.833-5.136-10.943-15.273-10.943h-13.247V50.591z M139.762,66.671v23.113h13.657
				c10.671,0,16.079-3.246,16.079-12.707c0-7.836-5.408-10.406-15.95-10.406H139.762z"/>
			<path d="M275.248,77.485c-5.81,21.758-21.627,29.731-39.87,29.731c-23.111,0-41.894-11.486-41.894-48.517
				c0-37.028,18.782-48.787,41.894-48.787c17.702,0,32.841,7.432,39.194,27.163l-17.975,5.813
				c-3.11-12.974-12.165-16.897-21.22-16.897c-12.567,0-22.839,7.029-22.839,32.708c0,25.675,10.271,32.437,22.839,32.437
				c9.462,0,18.383-4.868,21.491-18.789L275.248,77.485z"/>
		</g>
	</g>
	<g>
		<path d="M35.706,133.632h-7.639l-1.862,5.087h-1.292l6.354-17.367h1.241l6.35,17.367h-1.289L35.706,133.632z M28.463,132.516
			h6.822l-3.398-9.329L28.463,132.516z"/>
		<path d="M51.46,128.223c-0.965-0.669-2.257-1.042-3.448-1.042c-1.538,0-2.853,0.647-2.853,2.159c0,3.325,6.973,1.142,6.973,6.055
			c0,2.578-2.135,3.571-4.367,3.571c-1.664,0-3.4-0.545-4.392-1.412l0.67-0.993c0.72,0.745,2.307,1.289,3.794,1.289
			c1.591,0,3.052-0.646,3.052-2.455c0-3.498-6.97-1.438-6.97-6.055c0-2.331,1.984-3.273,4.165-3.273c1.39,0,2.881,0.395,3.922,1.068
			L51.46,128.223z"/>
		<path d="M58.705,127.355h-1.613v-1.043h1.912c0.767,0,0.939,0.148,0.939,0.945v11.461h-1.238V127.355z M58.48,121.352h1.639v1.641
			H58.48V121.352z"/>
		<path d="M73.963,138.719c-0.15-0.72-0.249-1.413-0.274-2.233c-1.141,1.662-2.901,2.48-4.492,2.48
			c-2.131,0-3.547-1.163-3.547-3.547c0-2.606,1.688-4.047,4.889-4.047c0.943,0,1.985,0.125,3.15,0.375v-1.638
			c0-2.01-1.341-2.929-3.051-2.929c-1.564,0-2.778,0.77-3.052,2.135l-1.244-0.176c0.326-1.982,2.139-3.073,4.32-3.073
			c2.332,0,4.268,1.265,4.268,4.043v4.094c0,1.661,0.075,3.052,0.273,4.516H73.963z M73.689,132.863
			c-1.214-0.247-2.284-0.372-3.15-0.372c-2.53,0-3.649,0.993-3.649,2.928c0,1.688,0.896,2.431,2.357,2.431
			c1.963,0,4.441-1.735,4.441-4.611V132.863z"/>
		<path d="M100.085,130.01c1.666,0.595,2.556,1.763,2.556,3.871c0,3.374-1.613,4.838-5.136,4.838h-5.707v-17.367h5.707
			c3.228,0,4.912,1.464,4.912,4.341C102.417,127.828,101.625,129.166,100.085,130.01z M93.042,129.488h4.464
			c2.433,0,3.673-1.066,3.673-3.72c0-2.357-1.24-3.301-3.673-3.301h-4.464V129.488z M93.042,130.604v6.998h4.464
			c2.58,0,3.897-0.967,3.897-3.722c0-2.456-1.317-3.276-3.897-3.276H93.042z"/>
		<path d="M118.197,137.75c-1.317,0.77-2.851,1.216-4.318,1.216c-3.175,0-5.656-1.811-5.656-6.45c0-3.869,1.787-6.449,5.358-6.449
			c3.574,0,4.988,2.629,4.988,6.25v0.721h-9.104c0.172,3.325,1.86,4.813,4.442,4.813c1.212,0,2.578-0.372,3.869-1.142
			L118.197,137.75z M109.487,131.923h7.844c-0.077-2.757-1.093-4.742-3.75-4.742C110.977,127.181,109.637,129.041,109.487,131.923z"
			/>
		<path d="M132.093,138.719c-0.15-0.72-0.251-1.413-0.277-2.233c-1.138,1.662-2.9,2.48-4.49,2.48c-2.133,0-3.547-1.163-3.547-3.547
			c0-2.606,1.688-4.047,4.887-4.047c0.943,0,1.987,0.125,3.15,0.375v-1.638c0-2.01-1.337-2.929-3.049-2.929
			c-1.564,0-2.781,0.77-3.052,2.135l-1.243-0.176c0.324-1.982,2.135-3.073,4.32-3.073c2.331,0,4.266,1.265,4.266,4.043v4.094
			c0,1.661,0.073,3.052,0.273,4.516H132.093z M131.816,132.863c-1.212-0.247-2.281-0.372-3.15-0.372
			c-2.53,0-3.645,0.993-3.645,2.928c0,1.688,0.893,2.431,2.358,2.431c1.958,0,4.438-1.735,4.438-4.611V132.863z"/>
		<path d="M143.577,138.966c-2.333,0-3.82-1.266-3.82-4.34v-8.313h1.24v8.313c0,2.207,1.119,3.224,2.779,3.224
			c2.284,0,4.019-1.859,4.019-5.109v-6.428h1.238v7.891c0,1.661,0.075,3.052,0.275,4.516h-1.241
			c-0.147-0.72-0.247-1.366-0.272-2.181C146.877,138.099,145.386,138.966,143.577,138.966z"/>
		<path d="M154.246,127.43v-1.117h1.984v-3.968h1.239v3.968h3.722v1.117h-3.722v8.238c0,1.612,0.819,2.182,1.787,2.182
			c0.619,0,1.291-0.247,1.835-0.569l0.372,1.041c-0.645,0.397-1.489,0.645-2.305,0.645c-1.516,0-2.929-0.841-2.929-3.298v-8.238
			H154.246z"/>
		<path d="M170.022,138.074l-4.737-11.762h1.341l4.067,10.098l4.12-10.098h1.338l-7.048,17.366h-1.338L170.022,138.074z"/>
		<path d="M204.683,133.855c-0.943,3.845-3.523,5.11-6.502,5.11c-3.794,0-6.895-2.11-6.895-8.905c0-6.797,3.101-8.955,6.895-8.955
			c2.88,0,5.336,1.162,6.377,4.688l-1.166,0.372c-0.844-3.054-2.854-3.944-5.211-3.944c-3.124,0-5.654,1.688-5.654,7.84
			s2.53,7.789,5.654,7.789c2.435,0,4.519-0.968,5.311-4.316L204.683,133.855z"/>
		<path d="M220.238,137.75c-1.315,0.77-2.854,1.216-4.316,1.216c-3.177,0-5.658-1.811-5.658-6.45c0-3.869,1.788-6.449,5.358-6.449
			c3.574,0,4.988,2.629,4.988,6.25v0.721h-9.108c0.177,3.325,1.864,4.813,4.442,4.813c1.218,0,2.58-0.372,3.873-1.142
			L220.238,137.75z M211.528,131.923h7.84c-0.073-2.757-1.089-4.742-3.746-4.742C213.02,127.181,211.679,129.041,211.528,131.923z"
			/>
		<path d="M228.053,138.719h-1.242v-12.406h1.242v2.184c0.917-1.564,2.405-2.43,4.218-2.43c2.331,0,3.821,1.265,3.821,4.339v8.313
			h-1.239v-8.313c0-2.209-1.118-3.225-2.78-3.225c-2.282,0-4.02,1.86-4.02,5.11V138.719z"/>
		<path d="M241.3,127.43v-1.117h1.987v-3.968h1.238v3.968h3.722v1.117h-3.722v8.238c0,1.612,0.819,2.182,1.785,2.182
			c0.621,0,1.293-0.247,1.838-0.569l0.372,1.041c-0.646,0.397-1.487,0.645-2.307,0.645c-1.517,0-2.927-0.841-2.927-3.298v-8.238
			H241.3z"/>
		<path d="M262.937,137.75c-1.317,0.77-2.855,1.216-4.32,1.216c-3.175,0-5.653-1.811-5.653-6.45c0-3.869,1.786-6.449,5.357-6.449
			c3.572,0,4.985,2.629,4.985,6.25v0.721H254.2c0.177,3.325,1.862,4.813,4.442,4.813c1.216,0,2.58-0.372,3.871-1.142L262.937,137.75
			z M254.227,131.923h7.84c-0.076-2.757-1.093-4.742-3.746-4.742C255.715,127.181,254.377,129.041,254.227,131.923z"/>
		<path d="M275.068,127.454c-0.423-0.174-0.87-0.273-1.265-0.273c-1.664,0-3.055,1.491-3.055,4.716v6.822h-1.24v-12.406h1.24v1.712
			c0.645-1.315,1.739-1.958,3.055-1.958c0.494,0,1.016,0.072,1.535,0.246L275.068,127.454z"/>
	</g>
	<rect x="24.171" y="154.159" fill="#231F20" width="252.364" height="0.991"/>
	<polygon fill="#8C1C1C" points="103.817,169.425 103.817,170.401 103.817,173.891 103.817,175.432 103.817,181.26 105.363,181.26 
		105.363,175.432 114.292,175.432 114.292,173.891 105.363,173.891 105.363,170.401 114.292,170.401 114.292,168.855 
		103.817,168.855 	"/>
	<path fill="#8C1C1C" d="M168.717,169.013v-0.02h-1.083l-6.949,12.267l1.828-0.054l1.727-3.056h7.906l1.729,3.056l1.822,0.054
		l-6.946-12.267L168.717,169.013z M165.11,176.604l3.079-5.464l3.089,5.464H165.11z"/>
	<polygon fill="#8C1C1C" points="158.119,174.287 147.641,174.287 147.641,168.854 146.097,168.854 146.097,181.26 147.641,181.26 
		147.641,175.832 158.119,175.832 158.119,181.26 159.664,181.26 159.664,168.854 158.119,168.854 	"/>
	<rect x="176.09" y="168.865" fill="#8C1C1C" width="1.545" height="12.408"/>
	<path fill="#8C1C1C" d="M127.477,168.855l-5.058,0.006l-5.054-0.006v0.009l-1.922,1.256v7.532h0.003l0.001,1.646l1.258,1.919h1.422
		h0.012h8.562h0.015h1.417l1.259-1.919l0.003-1.646h0.002v-7.532l-1.919-1.256V168.855z M127.855,170.859v3.804v2.989v1.25
		l-0.458,0.772h-0.682H126.7h-8.562h-0.012h-0.68l-0.458-0.772v-1.25v-2.989v-3.804l0.769-0.458h9.325L127.855,170.859z"/>
	<path fill="#8C1C1C" d="M141.836,168.864l-10.451-0.009v0.893v4.539v0.514v0.89v5.583h1.544v-5.441h8.513l0.772,0.457l-0.004,4.984
		h1.547v-5.726l-0.855-0.562l0.855-0.558v-2.154v-2.154L141.836,168.864z M142.204,173.693l-0.762,0.455h-8.513v-3.747h8.513
		l0.762,0.45l0.005,1.423L142.204,173.693z"/>
	<path fill="#8C1C1C" d="M191.909,172.274l0.002-2.154l-1.916-1.256l-10.45-0.009v0.893v4.539v0.514v0.89v5.583h1.543v-5.441h8.509
		l0.774,0.457l-0.01,4.984h1.548l0.002-5.726l-0.854-0.562l0.854-0.558L191.909,172.274z M190.359,173.693l-0.763,0.455h-8.509
		v-3.747h8.509l0.763,0.45l0.002,1.423L190.359,173.693z"/>
	<circle cx="86.031" cy="175.069" r="2.831"/>
	<circle cx="207.18" cy="175.069" r="2.832"/>
	<g>
		<path fill="#EF7A22" d="M43.147,164.284c-0.541-0.534-1.174-0.944-1.882-1.226c-0.701-0.286-1.466-0.417-2.262-0.417
			c-0.799,0-1.559,0.131-2.252,0.41c-0.705,0.28-1.344,0.698-1.887,1.232c-0.555,0.549-0.985,1.187-1.279,1.878
			c-0.29,0.685-0.434,1.435-0.434,2.211c0,0.769,0.144,1.506,0.434,2.197c0.293,0.683,0.724,1.304,1.281,1.857
			c0.551,0.542,1.19,0.958,1.891,1.252c0.704,0.28,1.46,0.424,2.246,0.424c0.782,0,1.532-0.144,2.24-0.424
			c0.708-0.294,1.353-0.71,1.904-1.252c0.554-0.54,0.984-1.167,1.278-1.857c0.293-0.691,0.443-1.429,0.443-2.197
			c0-0.776-0.146-1.526-0.437-2.211C44.137,165.471,43.707,164.833,43.147,164.284z M39.003,172.709
			c-0.597,0-1.154-0.105-1.663-0.313c-0.502-0.209-0.969-0.528-1.373-0.939c-0.414-0.424-0.731-0.898-0.942-1.421
			c-0.216-0.509-0.323-1.075-0.323-1.662c0-0.593,0.107-1.154,0.323-1.67c0.211-0.515,0.525-0.997,0.939-1.414
			c0.417-0.418,0.883-0.725,1.395-0.939c0.388-0.156,0.795-0.261,1.225-0.3c-0.248,0.665-0.805,2.021-1.633,3.208
			c0,0-0.154,0.724,0.551,0.659c0,0,0.976-0.02,1.015,0.214c0,0-0.03,0.234-0.131,0.398c0,0-0.052,0.267,0.561,0.279
			c0,0-0.323,0.235-0.258,0.34c0,0-0.062,0.183,0.597,0.34c0.437,0.098,0.069,0.769,0.124,1.121c0.107,0.69,0.417,0.965,1.963,0.261
			c0.834-0.378,1.03-0.21,1.082,0.104c-0.123,0.17-0.25,0.326-0.401,0.482c-0.413,0.404-0.889,0.724-1.405,0.939
			C40.138,172.604,39.577,172.709,39.003,172.709z M41.356,170.753c-1.829,0.651-1.437-0.496-1.437-0.496
			c0.136-0.834-0.28-0.861-0.375-0.887C39,169.221,39,169.083,39,169.083c0.04-0.093,0.545-0.378,0.545-0.378
			c-0.74,0-0.832-0.176-0.832-0.176c0.105-0.229,0.199-0.528,0.199-0.528c-0.046-0.274-1.092-0.443-1.092-0.443
			c-0.522-0.144-0.092-0.718-0.092-0.718c0.512-0.972,0.802-2.177,0.926-2.79c0.117-0.013,0.231-0.013,0.349-0.013
			c0.577,0,1.144,0.104,1.659,0.313c0.515,0.215,0.984,0.534,1.388,0.933c0.411,0.424,0.73,0.906,0.939,1.421
			c0.212,0.516,0.319,1.083,0.319,1.67c0,0.579-0.107,1.141-0.323,1.662c-0.072,0.184-0.166,0.358-0.257,0.522
			C42.599,170.381,42.39,170.375,41.356,170.753z"/>
		<polygon fill="#EF7A22" points="52.939,170.635 45.943,161.925 45.943,173.83 47.391,173.83 47.391,165.921 54.374,174.638 
			54.374,162.876 52.939,162.876 		"/>
		<path fill="#EF7A22" d="M61.125,169.507h3.585c-0.068,0.907-0.407,1.637-1.03,2.216c-0.678,0.64-1.574,0.96-2.667,0.96
			c-0.542,0-0.955-0.085-1.474-0.294c-0.485-0.202-0.926-0.489-1.314-0.893c-0.385-0.392-0.678-0.861-0.887-1.37
			c-0.202-0.515-0.303-1.069-0.303-1.656c0-1.302,0.385-2.386,1.145-3.201c0.789-0.84,1.66-1.225,2.833-1.225
			c0.724,0,1.385,0.162,1.959,0.476c0.57,0.313,1.063,0.783,1.46,1.396l0.176,0.261l1.093-0.946l-0.108-0.201
			c-0.434-0.783-1.059-1.382-1.861-1.786c-0.792-0.404-1.751-0.601-2.846-0.601c-0.776,0-1.405,0.117-2.103,0.417
			c-0.671,0.273-1.275,0.704-1.8,1.266c-0.495,0.521-0.867,1.135-1.127,1.825c-0.261,0.697-0.391,1.447-0.391,2.224
			c0,1.688,0.517,3.083,1.544,4.139c1.056,1.09,2.305,1.592,3.918,1.592c1.663,0,2.993-0.502,3.945-1.485
			c0.959-0.992,1.441-2.361,1.441-4.089v-0.385h-5.189V169.507z"/>
		<path fill="#F89C1F" d="M30.596,180.298c0.257-0.146,0.482-0.313,0.672-0.522c0.395-0.443,0.593-0.977,0.593-1.604
			c0-0.496-0.121-0.966-0.358-1.382c-0.246-0.418-0.597-0.77-1.051-1.05c-0.326-0.201-0.723-0.346-1.176-0.431
			c-0.45-0.078-1.141-0.116-2.125-0.116h-2.458v10.945h2.478c1.274,0,2.158-0.053,2.696-0.169c0.554-0.13,1.037-0.34,1.435-0.652
			c0.394-0.3,0.694-0.665,0.89-1.082c0.196-0.418,0.293-0.9,0.293-1.415c0-0.75-0.26-1.368-0.775-1.857
			C31.408,180.676,31.033,180.454,30.596,180.298z M29.612,179.437c-0.392,0.261-1.086,0.386-2.074,0.386h-1.147v-3.255h1.147
			c1.014,0,1.715,0.13,2.08,0.393c0.346,0.234,0.515,0.665,0.515,1.29C30.133,178.817,29.964,179.208,29.612,179.437z
			 M27.574,184.782h-1.184v-3.598h1.431c0.609,0,1.053,0.025,1.343,0.072c0.258,0.03,0.489,0.096,0.685,0.195
			c0.268,0.123,0.47,0.319,0.624,0.593c0.156,0.274,0.231,0.6,0.231,0.965c0,0.3-0.069,0.574-0.206,0.834
			c-0.144,0.262-0.319,0.457-0.551,0.601c-0.186,0.117-0.427,0.208-0.701,0.261C28.947,184.743,28.383,184.782,27.574,184.782z"/>
		<path fill="#F89C1F" d="M43.147,176.607c-0.548-0.534-1.181-0.951-1.882-1.233c-0.701-0.272-1.466-0.416-2.262-0.416
			c-0.799,0-1.562,0.137-2.256,0.416c-0.701,0.282-1.333,0.693-1.884,1.233c-0.555,0.548-0.985,1.174-1.279,1.864
			c-0.29,0.697-0.434,1.441-0.434,2.217c0,0.77,0.144,1.513,0.434,2.204c0.293,0.678,0.724,1.304,1.281,1.851
			c0.551,0.548,1.19,0.966,1.891,1.253c0.704,0.286,1.458,0.43,2.246,0.43c0.782,0,1.539-0.144,2.24-0.43
			c0.708-0.287,1.349-0.705,1.906-1.253c0.551-0.534,0.982-1.159,1.275-1.851c0.293-0.691,0.443-1.435,0.443-2.204
			c0-0.775-0.146-1.525-0.437-2.217C44.137,177.781,43.707,177.155,43.147,176.607z M39.003,185.031
			c-0.597,0-1.154-0.105-1.663-0.318c-0.502-0.21-0.969-0.523-1.373-0.934c-0.414-0.417-0.731-0.9-0.942-1.423
			c-0.216-0.515-0.323-1.081-0.323-1.668s0.107-1.154,0.323-1.669c0.211-0.509,0.528-0.992,0.939-1.408
			c0.417-0.417,0.883-0.724,1.391-0.938c0.161-0.065,0.327-0.118,0.493-0.164c-0.404,0.567-1.242,1.663-2.063,2.152
			c0,0,0.528,1.193,1.741,0.894c0.299,0.417,0.338,0.782,0.319,2.125c-0.026,1.525,0.604,3.117,0.604,3.117
			c-0.122-0.548-0.434-2.354-0.245-3.568c0.124-0.813-0.525-1.467-0.577-1.597l-0.088-0.077c0.196-0.046,0.411-0.132,0.649-0.274
			c0,0-1.419,0.651-1.816-0.561c0,0,0.896-0.99,1.461-2.165l0.036-0.053c0.362-0.097,0.74-0.155,1.135-0.155
			c0.583,0,1.144,0.117,1.659,0.326c0.013,0.007,0.029,0.013,0.042,0.024c0.019,0.216,0.013,0.503-0.115,0.751
			c-0.26,0.488-2.236,2.627-0.098,3.893c1.626,0.965,1.604,1.962,1.32,2.646c-0.352,0.3-0.743,0.548-1.164,0.718
			C40.138,184.926,39.577,185.031,39.003,185.031z M40.776,181.041c-1.288-0.64-0.952-1.996-0.382-2.921
			c0.382-0.626,0.415-1.102,0.369-1.396c0.477,0.21,0.91,0.495,1.288,0.887c0.411,0.416,0.73,0.886,0.939,1.408
			c0.212,0.521,0.319,1.082,0.319,1.669s-0.107,1.147-0.323,1.668c-0.214,0.528-0.531,1.006-0.933,1.423
			c-0.035,0.026-0.078,0.059-0.113,0.092C42.367,182.657,41.884,181.595,40.776,181.041z"/>
		<polygon fill="#F89C1F" points="52.939,182.945 45.943,174.247 45.943,186.139 47.391,186.139 47.391,178.236 54.374,186.961 
			54.374,175.193 52.939,175.193 		"/>
		<path fill="#F89C1F" d="M61.125,181.821h3.585c-0.068,0.914-0.407,1.645-1.03,2.226c-0.678,0.632-1.574,0.958-2.667,0.958
			c-0.539,0-0.955-0.091-1.48-0.3c-0.479-0.196-0.916-0.489-1.307-0.888c-0.385-0.396-0.678-0.854-0.887-1.375
			c-0.202-0.516-0.303-1.063-0.303-1.649c0-1.311,0.385-2.388,1.145-3.208c0.789-0.841,1.66-1.221,2.833-1.221
			c0.724,0,1.385,0.165,1.959,0.478c0.57,0.313,1.063,0.783,1.46,1.395l0.176,0.261l1.093-0.951l-0.108-0.195
			c-0.434-0.783-1.059-1.389-1.861-1.8c-0.789-0.391-1.751-0.593-2.846-0.593c-0.776,0-1.405,0.123-2.109,0.416
			c-0.665,0.282-1.269,0.712-1.793,1.272c-0.495,0.521-0.867,1.12-1.127,1.825c-0.261,0.691-0.391,1.441-0.391,2.217
			c0,1.695,0.517,3.091,1.544,4.147c1.056,1.081,2.305,1.59,3.918,1.59c1.663,0,2.993-0.509,3.945-1.487
			c0.959-0.991,1.441-2.365,1.441-4.093v-0.385h-5.189V181.821z"/>
		<path fill="#EF7A22" d="M30.596,167.981c0.257-0.144,0.482-0.319,0.672-0.527c0.395-0.438,0.593-0.979,0.593-1.604
			c0-0.496-0.121-0.966-0.358-1.382c-0.246-0.418-0.594-0.77-1.051-1.058c-0.326-0.195-0.723-0.338-1.18-0.423
			c-0.44-0.072-1.154-0.111-2.122-0.111h-2.458v10.954h2.478c1.274,0,2.155-0.066,2.696-0.184c0.554-0.123,1.037-0.339,1.435-0.651
			c0.394-0.3,0.694-0.665,0.89-1.083c0.196-0.416,0.293-0.886,0.293-1.414c0-0.749-0.26-1.376-0.775-1.858
			C31.408,168.354,31.033,168.131,30.596,167.981z M29.609,167.115c-0.382,0.253-1.08,0.39-2.071,0.39h-1.147v-3.26h1.147
			c1.014,0,1.711,0.132,2.08,0.393c0.346,0.233,0.515,0.665,0.515,1.291C30.133,166.502,29.964,166.894,29.609,167.115z
			 M27.574,172.46h-1.184v-3.599h1.431c0.609,0,1.063,0.026,1.343,0.065c0.261,0.053,0.499,0.117,0.685,0.195
			c0.268,0.137,0.47,0.332,0.624,0.606c0.156,0.267,0.231,0.593,0.231,0.959c0,0.3-0.069,0.573-0.206,0.833
			c-0.144,0.261-0.319,0.457-0.551,0.607c-0.186,0.111-0.427,0.202-0.701,0.254C28.947,172.435,28.385,172.46,27.574,172.46z"/>
	</g>
	<path fill="#231F20" d="M27.161,189.233c0,0.154-0.021,0.293-0.063,0.417c-0.042,0.123-0.107,0.228-0.194,0.315
		c-0.087,0.087-0.199,0.154-0.336,0.2c-0.138,0.047-0.302,0.069-0.492,0.069h-0.939v1.366h-0.444v-3.37h1.383
		c0.19,0,0.354,0.023,0.492,0.07c0.137,0.046,0.25,0.112,0.336,0.198s0.152,0.191,0.194,0.314
		C27.14,188.938,27.161,189.078,27.161,189.233z M26.718,189.233c0-0.211-0.061-0.368-0.184-0.47
		c-0.123-0.101-0.325-0.151-0.609-0.151h-0.789v1.243h0.789c0.284,0,0.487-0.051,0.609-0.15S26.718,189.448,26.718,189.233z"/>
	<path fill="#231F20" d="M27.681,188.231h0.444v2.989h1.725v0.381h-2.169V188.231z"/>
	<path fill="#231F20" d="M32.06,190.586h-1.396l-0.371,1.016h-0.457l1.292-3.37h0.488l1.285,3.37h-0.478L32.06,190.586z
		 M31.365,188.653l-0.565,1.555h1.117l-0.544-1.555H31.365z"/>
	<path fill="#231F20" d="M35.691,190.714c0,0.168-0.035,0.313-0.105,0.436c-0.07,0.121-0.165,0.223-0.285,0.302
		c-0.119,0.079-0.258,0.138-0.417,0.174c-0.159,0.038-0.326,0.056-0.503,0.056c-0.182,0-0.354-0.022-0.515-0.071
		c-0.162-0.047-0.304-0.12-0.428-0.218c-0.123-0.098-0.221-0.222-0.293-0.371c-0.073-0.147-0.108-0.324-0.108-0.526h0.416
		c0,0.14,0.026,0.26,0.08,0.362c0.053,0.101,0.124,0.185,0.211,0.251c0.087,0.065,0.188,0.115,0.302,0.146
		c0.114,0.032,0.23,0.048,0.35,0.048c0.097,0,0.198-0.009,0.3-0.026c0.102-0.02,0.195-0.052,0.277-0.098
		c0.083-0.046,0.15-0.106,0.203-0.182c0.052-0.075,0.079-0.17,0.079-0.281c0-0.11-0.025-0.204-0.077-0.277
		c-0.051-0.074-0.124-0.135-0.216-0.186c-0.093-0.049-0.205-0.092-0.335-0.125c-0.13-0.034-0.274-0.066-0.43-0.1
		c-0.133-0.025-0.262-0.058-0.389-0.096c-0.126-0.038-0.24-0.092-0.339-0.157c-0.099-0.066-0.179-0.15-0.239-0.251
		c-0.062-0.1-0.091-0.224-0.091-0.372c0-0.171,0.033-0.317,0.098-0.442c0.065-0.124,0.153-0.228,0.266-0.311
		c0.112-0.082,0.24-0.145,0.386-0.184c0.145-0.04,0.298-0.059,0.458-0.059c0.166,0,0.319,0.02,0.461,0.061
		c0.142,0.041,0.267,0.104,0.373,0.188c0.107,0.085,0.193,0.194,0.257,0.328c0.064,0.135,0.101,0.294,0.11,0.48h-0.409
		c-0.01-0.121-0.037-0.225-0.082-0.313c-0.045-0.087-0.104-0.159-0.175-0.215c-0.071-0.056-0.153-0.096-0.246-0.121
		c-0.093-0.027-0.192-0.039-0.296-0.039c-0.105,0-0.205,0.012-0.297,0.037c-0.093,0.023-0.173,0.061-0.241,0.109
		c-0.067,0.049-0.121,0.106-0.16,0.177c-0.04,0.071-0.06,0.15-0.06,0.242c0,0.109,0.03,0.196,0.089,0.262
		c0.06,0.065,0.138,0.119,0.236,0.161c0.098,0.041,0.21,0.076,0.336,0.103c0.127,0.026,0.26,0.056,0.397,0.089
		c0.133,0.03,0.262,0.065,0.387,0.106c0.126,0.04,0.238,0.1,0.335,0.173c0.098,0.075,0.177,0.17,0.238,0.287
		C35.66,190.388,35.691,190.535,35.691,190.714z"/>
	<path fill="#231F20" d="M37.398,191.602h-0.443v-2.989h-1.086v-0.381h2.618v0.381h-1.089V191.602z"/>
	<path fill="#231F20" d="M38.882,188.231h0.443v3.37h-0.443V188.231z"/>
	<path fill="#231F20" d="M42.722,190.896c-0.072,0.168-0.168,0.311-0.29,0.426c-0.121,0.116-0.266,0.206-0.434,0.268
		c-0.169,0.062-0.359,0.092-0.571,0.092c-0.256,0-0.479-0.045-0.671-0.136c-0.19-0.091-0.349-0.215-0.476-0.374
		c-0.126-0.158-0.222-0.345-0.284-0.559c-0.063-0.217-0.095-0.449-0.095-0.697c0-0.245,0.035-0.474,0.105-0.688
		c0.069-0.215,0.171-0.399,0.303-0.561c0.133-0.158,0.294-0.284,0.483-0.375c0.19-0.092,0.406-0.136,0.648-0.136
		c0.179,0,0.349,0.023,0.508,0.069c0.16,0.048,0.301,0.117,0.425,0.208c0.123,0.093,0.224,0.208,0.304,0.346
		c0.079,0.139,0.129,0.3,0.15,0.484h-0.437c-0.02-0.124-0.059-0.231-0.116-0.324c-0.055-0.092-0.125-0.169-0.207-0.23
		s-0.177-0.108-0.285-0.138c-0.107-0.031-0.221-0.045-0.342-0.045c-0.188,0-0.352,0.039-0.49,0.117
		c-0.138,0.077-0.253,0.181-0.342,0.311c-0.09,0.129-0.156,0.277-0.199,0.444c-0.043,0.168-0.065,0.34-0.065,0.518
		c0,0.197,0.023,0.382,0.071,0.55s0.118,0.315,0.212,0.439c0.093,0.124,0.206,0.223,0.339,0.292c0.135,0.069,0.288,0.104,0.46,0.104
		c0.164,0,0.304-0.024,0.422-0.074c0.119-0.048,0.219-0.115,0.299-0.204c0.08-0.086,0.142-0.189,0.185-0.309
		c0.043-0.12,0.072-0.247,0.085-0.387h0.444C42.841,190.539,42.794,190.728,42.722,190.896z"/>
	<path fill="#231F20" d="M47.729,190.714c0,0.168-0.035,0.313-0.104,0.436c-0.07,0.121-0.165,0.223-0.285,0.302
		c-0.12,0.079-0.259,0.138-0.417,0.174c-0.158,0.038-0.326,0.056-0.502,0.056c-0.182,0-0.354-0.022-0.515-0.071
		c-0.162-0.047-0.305-0.12-0.428-0.218c-0.124-0.098-0.221-0.222-0.293-0.371c-0.072-0.147-0.108-0.324-0.108-0.526h0.416
		c0,0.14,0.027,0.26,0.08,0.362c0.053,0.101,0.124,0.185,0.211,0.251c0.087,0.065,0.188,0.115,0.302,0.146
		c0.114,0.032,0.231,0.048,0.35,0.048c0.098,0,0.197-0.009,0.3-0.026c0.102-0.02,0.195-0.052,0.278-0.098s0.15-0.106,0.202-0.182
		c0.053-0.075,0.079-0.17,0.079-0.281c0-0.11-0.026-0.204-0.077-0.277c-0.052-0.074-0.124-0.135-0.217-0.186
		c-0.092-0.049-0.204-0.092-0.335-0.125c-0.13-0.034-0.273-0.066-0.429-0.1c-0.133-0.025-0.262-0.058-0.39-0.096
		c-0.127-0.038-0.239-0.092-0.338-0.157c-0.099-0.066-0.179-0.15-0.239-0.251c-0.061-0.1-0.091-0.224-0.091-0.372
		c0-0.171,0.033-0.317,0.098-0.442c0.065-0.124,0.154-0.228,0.266-0.311c0.112-0.082,0.24-0.145,0.386-0.184
		c0.146-0.04,0.299-0.059,0.459-0.059c0.166,0,0.319,0.02,0.461,0.061c0.142,0.041,0.266,0.104,0.374,0.188
		c0.107,0.085,0.192,0.194,0.256,0.328c0.064,0.135,0.101,0.294,0.11,0.48h-0.408c-0.009-0.121-0.037-0.225-0.083-0.313
		c-0.045-0.087-0.103-0.159-0.174-0.215c-0.072-0.056-0.153-0.096-0.247-0.121c-0.093-0.027-0.192-0.039-0.297-0.039
		c-0.104,0-0.204,0.012-0.296,0.037c-0.093,0.023-0.174,0.061-0.241,0.109c-0.068,0.049-0.122,0.106-0.161,0.177
		c-0.04,0.071-0.059,0.15-0.059,0.242c0,0.109,0.03,0.196,0.089,0.262c0.059,0.065,0.138,0.119,0.235,0.161
		c0.098,0.041,0.21,0.076,0.337,0.103c0.126,0.026,0.258,0.056,0.396,0.089c0.133,0.03,0.262,0.065,0.388,0.106
		c0.125,0.04,0.237,0.1,0.335,0.173c0.098,0.075,0.177,0.17,0.237,0.287C47.7,190.388,47.729,190.535,47.729,190.714z"/>
	<path fill="#231F20" d="M57.638,188.231h2.27v0.381h-1.827v1.065h1.683v0.379h-1.683v1.164h1.84v0.381h-2.283V188.231z"/>
	<path fill="#231F20" d="M53.242,191.602c-0.032-0.035-0.057-0.085-0.072-0.148c-0.015-0.064-0.025-0.134-0.031-0.211
		c-0.005-0.074-0.009-0.153-0.01-0.233c-0.001-0.08-0.004-0.154-0.009-0.222c-0.007-0.084-0.019-0.161-0.035-0.237
		c-0.016-0.074-0.044-0.142-0.083-0.197c-0.04-0.061-0.095-0.105-0.168-0.14c-0.072-0.034-0.167-0.051-0.286-0.051H51.51v1.439
		h-0.443v-3.37h1.525c0.177,0,0.33,0.023,0.458,0.068c0.127,0.045,0.234,0.108,0.318,0.19c0.083,0.082,0.145,0.178,0.185,0.288
		c0.04,0.113,0.059,0.237,0.059,0.372c0,0.083-0.01,0.169-0.032,0.253c-0.021,0.085-0.054,0.165-0.099,0.239
		c-0.045,0.074-0.103,0.14-0.173,0.198c-0.07,0.06-0.153,0.102-0.251,0.13v0.006c0.093,0.022,0.169,0.055,0.229,0.104
		c0.059,0.045,0.106,0.101,0.141,0.165c0.036,0.064,0.061,0.134,0.076,0.209c0.015,0.076,0.026,0.153,0.033,0.231
		c0.007,0.082,0.013,0.165,0.018,0.248c0.004,0.085,0.013,0.166,0.024,0.247c0.012,0.079,0.029,0.154,0.051,0.227
		c0.021,0.072,0.055,0.136,0.099,0.194H53.242z M53.179,189.185c0-0.081-0.011-0.156-0.035-0.228
		c-0.023-0.069-0.06-0.13-0.108-0.181c-0.049-0.053-0.113-0.091-0.191-0.12c-0.078-0.029-0.17-0.044-0.277-0.044H51.51v1.174h0.88
		c0.106,0,0.208-0.01,0.304-0.025c0.096-0.016,0.179-0.046,0.25-0.091c0.073-0.044,0.13-0.104,0.172-0.183
		C53.158,189.409,53.179,189.308,53.179,189.185z"/>
	<path fill="#231F20" d="M56.695,191.179c-0.063,0.09-0.135,0.167-0.216,0.23c-0.082,0.063-0.169,0.115-0.262,0.155
		c-0.093,0.041-0.188,0.07-0.288,0.088c-0.098,0.02-0.196,0.028-0.291,0.028c-0.252,0-0.476-0.048-0.672-0.145
		c-0.196-0.097-0.362-0.226-0.498-0.385c-0.136-0.161-0.238-0.346-0.307-0.558c-0.069-0.207-0.104-0.426-0.104-0.651
		c0-0.239,0.034-0.467,0.103-0.685c0.068-0.217,0.17-0.405,0.304-0.568s0.299-0.293,0.495-0.39c0.197-0.098,0.423-0.145,0.68-0.145
		c0.177,0,0.345,0.02,0.504,0.063c0.158,0.042,0.302,0.107,0.427,0.199c0.126,0.091,0.231,0.206,0.315,0.347
		c0.083,0.143,0.139,0.31,0.167,0.505h-0.436c-0.019-0.128-0.057-0.238-0.116-0.331c-0.058-0.094-0.13-0.17-0.218-0.232
		c-0.087-0.063-0.186-0.107-0.296-0.137c-0.111-0.029-0.227-0.043-0.347-0.043c-0.195,0-0.365,0.04-0.508,0.12
		c-0.143,0.079-0.261,0.187-0.354,0.318c-0.093,0.131-0.163,0.281-0.208,0.452c-0.044,0.169-0.068,0.345-0.068,0.526
		c0,0.18,0.025,0.351,0.075,0.515s0.123,0.31,0.218,0.434c0.095,0.124,0.214,0.224,0.356,0.299c0.142,0.074,0.305,0.111,0.489,0.111
		c0.17,0,0.321-0.028,0.454-0.085c0.132-0.059,0.244-0.135,0.335-0.233c0.09-0.1,0.158-0.216,0.204-0.349s0.064-0.275,0.058-0.426
		h-1.065v-0.38h1.466v1.773h-0.279L56.695,191.179z"/>
	<path fill="#231F20" d="M50.473,190.957c-0.063,0.169-0.152,0.307-0.265,0.414c-0.115,0.107-0.252,0.185-0.412,0.236
		c-0.161,0.049-0.34,0.073-0.539,0.073c-0.212,0-0.401-0.024-0.569-0.073c-0.168-0.052-0.31-0.129-0.427-0.236
		c-0.119-0.107-0.208-0.245-0.269-0.414c-0.063-0.169-0.093-0.372-0.093-0.612v-2.113h0.444v2.113c0,0.327,0.08,0.57,0.24,0.724
		c0.161,0.155,0.386,0.232,0.674,0.232c0.279,0,0.495-0.077,0.646-0.232c0.151-0.153,0.227-0.396,0.227-0.724v-2.113h0.437v2.113
		C50.567,190.585,50.536,190.788,50.473,190.957z"/>
	<path fill="#231F20" d="M62.759,191.602c-0.033-0.035-0.056-0.085-0.072-0.148c-0.015-0.064-0.025-0.134-0.031-0.211
		c-0.005-0.074-0.009-0.153-0.01-0.233c-0.001-0.08-0.004-0.154-0.009-0.222c-0.006-0.084-0.018-0.161-0.035-0.237
		c-0.017-0.074-0.044-0.142-0.084-0.197c-0.039-0.061-0.096-0.105-0.167-0.14c-0.073-0.034-0.168-0.051-0.287-0.051h-1.037v1.439
		h-0.443v-3.37h1.525c0.176,0,0.33,0.023,0.458,0.068s0.234,0.108,0.317,0.19c0.084,0.082,0.146,0.178,0.185,0.288
		c0.039,0.113,0.06,0.237,0.06,0.372c0,0.083-0.011,0.169-0.032,0.253c-0.021,0.085-0.053,0.165-0.099,0.239
		c-0.045,0.074-0.103,0.14-0.173,0.198c-0.07,0.06-0.154,0.102-0.251,0.13v0.006c0.093,0.022,0.17,0.055,0.229,0.104
		c0.059,0.045,0.106,0.101,0.141,0.165c0.035,0.064,0.06,0.134,0.075,0.209c0.016,0.076,0.026,0.153,0.033,0.231
		c0.007,0.082,0.013,0.165,0.017,0.248c0.005,0.085,0.013,0.166,0.025,0.247c0.011,0.079,0.028,0.154,0.05,0.227
		s0.055,0.136,0.1,0.194H62.759z M62.696,189.185c0-0.081-0.012-0.156-0.035-0.228c-0.023-0.069-0.06-0.13-0.108-0.181
		c-0.049-0.053-0.112-0.091-0.19-0.12c-0.079-0.029-0.171-0.044-0.278-0.044h-1.058v1.174h0.88c0.107,0,0.208-0.01,0.303-0.025
		c0.096-0.016,0.18-0.046,0.252-0.091c0.071-0.044,0.129-0.104,0.171-0.183S62.696,189.308,62.696,189.185z"/>
	<path fill="#231F20" d="M65.105,191.602h-0.443v-1.38l-1.274-1.99h0.523l0.963,1.583h0.014l0.967-1.583h0.52l-1.271,1.99V191.602z"
		/>
	<g>
		<g>
			<linearGradient id="SVGID_1_" gradientUnits="userSpaceOnUse" x1="262.1543" y1="170.4453" x2="286.7448" y2="170.4453">
				<stop  offset="0" style="stop-color:#EA582F"/>
				<stop  offset="0.2088" style="stop-color:#EA582F"/>
				<stop  offset="0.2691" style="stop-color:#EB6236"/>
				<stop  offset="0.3721" style="stop-color:#EE7D49"/>
				<stop  offset="0.5046" style="stop-color:#F3A967"/>
				<stop  offset="0.5604" style="stop-color:#F5BE75"/>
				<stop  offset="0.7857" style="stop-color:#FFFFFF"/>
				<stop  offset="1" style="stop-color:#FFFFFF"/>
			</linearGradient>
			<path fill="url(#SVGID_1_)" d="M269.032,178.952h-2.151c-0.075-0.019-2.379-0.533-3.171-2.821
				c-0.013-0.038-1.267-3.64-1.267-7.643c0-2.601,0.522-4.805,1.555-6.55h5.41c-0.051,0.677-0.179,2.443-0.179,3.723
				c0,0.396,0.014,0.721,0.04,0.961c-0.146,0.389-1.648,4.421-1.728,5.432c-0.001,0.118,0.04,0.204,0.114,0.264l1.228,0.992
				l0.043,1.622c-0.076,0.003-0.151,0.003-0.228,0.003c-1.312,0-2.422-0.168-2.828-0.425c-0.046-0.029-0.098-0.045-0.152-0.045
				c-0.1,0-0.188,0.051-0.24,0.132c-0.041,0.064-0.054,0.142-0.038,0.215c0.016,0.074,0.061,0.138,0.125,0.178
				c0.502,0.32,1.669,0.511,3.118,0.511c0.086,0,0.172-0.001,0.258-0.002L269.032,178.952L269.032,178.952z M265.747,166.413
				c-0.352,0-0.636,0.286-0.636,0.637c0,0.352,0.284,0.638,0.636,0.638c0.353,0,0.64-0.286,0.64-0.638
				C266.387,166.699,266.1,166.413,265.747,166.413L265.747,166.413z M269.648,178.945c-0.015-0.555-0.055-2.108-0.091-3.469
				c0.768-0.042,1.48-0.136,2.017-0.268c0.738-0.18,1.205-0.436,1.389-0.755c0.038-0.063,0.048-0.14,0.029-0.211
				c-0.02-0.077-0.066-0.138-0.133-0.178c-0.044-0.025-0.093-0.038-0.143-0.038c-0.102,0-0.195,0.055-0.247,0.141
				c-0.036,0.064-0.22,0.289-1.031,0.488c-0.523,0.13-1.178,0.216-1.896,0.255l-0.045-1.76c-0.003-0.091-0.045-0.174-0.113-0.229
				c-0.002-0.003-0.94-0.761-1.203-0.973c0.187-1.115,1.529-4.742,1.684-5.158c0.02-0.05,0.025-0.088,0.025-0.126
				c-0.029-0.264-0.043-0.585-0.043-0.993c0-1.26,0.129-3.064,0.181-3.733h5.878c0.185,0.754,0.684,3.065,0.684,6.203
				c0,1.714-0.149,3.418-0.443,5.064C276.119,173.441,275.476,178.77,269.648,178.945L269.648,178.945z M273.261,166.413
				c-0.353,0-0.638,0.286-0.638,0.637c0,0.352,0.285,0.638,0.638,0.638c0.352,0,0.638-0.286,0.638-0.638
				C273.898,166.699,273.612,166.413,273.261,166.413L273.261,166.413z"/>
			<linearGradient id="SVGID_2_" gradientUnits="userSpaceOnUse" x1="233.0898" y1="170.0635" x2="253.2005" y2="170.0635">
				<stop  offset="0" style="stop-color:#EA582F"/>
				<stop  offset="0.2088" style="stop-color:#EA582F"/>
				<stop  offset="0.2691" style="stop-color:#EB6236"/>
				<stop  offset="0.3721" style="stop-color:#EE7D49"/>
				<stop  offset="0.5046" style="stop-color:#F3A967"/>
				<stop  offset="0.5604" style="stop-color:#F5BE75"/>
				<stop  offset="0.7857" style="stop-color:#FFFFFF"/>
				<stop  offset="1" style="stop-color:#FFFFFF"/>
			</linearGradient>
			<path fill="url(#SVGID_2_)" d="M243.521,178.192l-7.805-0.166c-0.615,0-0.7-0.649-0.71-0.78l-0.291-2.43
				c0.105,0.017,0.263,0.035,0.451,0.035c0.38,0,0.927-0.08,1.377-0.455c0.057-0.046,0.092-0.113,0.099-0.186
				c0.007-0.074-0.016-0.146-0.063-0.204c-0.054-0.063-0.13-0.098-0.213-0.098c-0.064,0-0.125,0.022-0.176,0.063
				c-0.321,0.271-0.735,0.326-1.026,0.326c-0.264,0-0.457-0.047-0.458-0.047l-0.014-0.002l-0.051-0.005
				c-0.024,0-0.048,0.004-0.071,0.01l-0.169-0.267l-0.01-0.019c0.033-0.289,0.2-1.732,0.2-1.732l0.01-0.08l-0.072-0.036
				l-1.534-0.729c-0.011-0.004-0.019-0.027-0.019-0.067c0-0.091,0.036-0.189,0.038-0.192c0.014-0.022,0.846-1.432,0.846-1.432
				c0.285-0.521,0.698-1.466,0.74-1.886l0.001-0.009l-0.001-0.048c-0.05-0.664-0.183-1.075-0.267-1.276
				c0.242-2.056,0.575-3.902,0.697-4.547h8.944c-0.217,0.631-0.66,1.96-1.053,3.459c-0.07-0.023-0.138-0.033-0.207-0.033
				c-0.714,0-1.233,1.046-1.233,2.487c0,0.619,0.102,1.197,0.289,1.641l-0.894,1.425l-0.013,0.021l-0.004,0.024l-0.007,0.049
				c-0.004,0.048-0.009,0.101-0.009,0.156c0,0.435,0.198,0.774,0.531,0.908l1.173,0.396l0.021,1.454v0.032l0.019,0.027l0.342,0.52
				l0.358,0.674c0.019,0.287,0.175,2.706,0.175,2.706C243.472,177.976,243.491,178.083,243.521,178.192L243.521,178.192z
				 M236.117,167.232c-0.353,0-0.639,0.286-0.639,0.639c0,0.35,0.286,0.636,0.639,0.636c0.352,0,0.639-0.286,0.639-0.636
				C236.756,167.519,236.469,167.232,236.117,167.232L236.117,167.232z M242.148,168.885c-0.078-0.313-0.119-0.665-0.119-1.037
				c0-1.185,0.407-1.94,0.687-1.94c0.021,0,0.046,0.005,0.071,0.017c-0.023,0.093-0.046,0.188-0.067,0.28l-0.004,0.012l-0.014,0.07
				l-0.001,0.052c0,0.174,0.041,0.347,0.082,0.515c0.036,0.142,0.07,0.283,0.07,0.374c-0.016,0.118-0.119,0.787-0.548,1.407
				L242.148,168.885L242.148,168.885z"/>
			<linearGradient id="SVGID_3_" gradientUnits="userSpaceOnUse" x1="243.5371" y1="166.6338" x2="258.3856" y2="166.6338">
				<stop  offset="0" style="stop-color:#EA582F"/>
				<stop  offset="0.2088" style="stop-color:#EA582F"/>
				<stop  offset="0.2691" style="stop-color:#EB6236"/>
				<stop  offset="0.3721" style="stop-color:#EE7D49"/>
				<stop  offset="0.5046" style="stop-color:#F3A967"/>
				<stop  offset="0.5604" style="stop-color:#F5BE75"/>
				<stop  offset="0.7857" style="stop-color:#FFFFFF"/>
				<stop  offset="1" style="stop-color:#FFFFFF"/>
			</linearGradient>
			<path fill="url(#SVGID_3_)" d="M252.363,166.694c0.004-0.271,0.022-0.541,0.05-0.807c-0.328,0.135-0.653,0.838-0.698,1.833
				C252.016,167.254,252.278,166.831,252.363,166.694z M242.998,165.547"/>
			<linearGradient id="SVGID_4_" gradientUnits="userSpaceOnUse" x1="242.2207" y1="170.3047" x2="261.1012" y2="170.3047">
				<stop  offset="0" style="stop-color:#EA582F"/>
				<stop  offset="0.2088" style="stop-color:#EA582F"/>
				<stop  offset="0.2691" style="stop-color:#EB6236"/>
				<stop  offset="0.3721" style="stop-color:#EE7D49"/>
				<stop  offset="0.5046" style="stop-color:#F3A967"/>
				<stop  offset="0.5604" style="stop-color:#F5BE75"/>
				<stop  offset="0.7857" style="stop-color:#FFFFFF"/>
				<stop  offset="1" style="stop-color:#FFFFFF"/>
			</linearGradient>
			<path fill="url(#SVGID_4_)" d="M252.747,178.67h-6.644c-0.013-0.003-1.207-0.076-1.207-0.076c-0.668,0-0.738-0.684-0.744-0.762
				l-0.184-2.826l-0.001-0.024l-0.012-0.021l-0.198-0.371c0.143,0.013,0.315,0.022,0.5,0.022c0.745,0,1.301-0.161,1.646-0.48
				c0.056-0.05,0.086-0.117,0.09-0.189c0.002-0.075-0.023-0.144-0.072-0.199c-0.053-0.055-0.125-0.086-0.201-0.086
				c-0.068,0-0.135,0.025-0.186,0.072c-0.239,0.222-0.678,0.338-1.268,0.338c-0.41,0-0.76-0.057-0.846-0.072l-0.099-0.15
				l-0.066-0.101c-0.004-0.263-0.024-1.692-0.024-1.692l-0.001-0.08l-0.076-0.025l-1.539-0.519c-0.046-0.02-0.081-0.123-0.081-0.264
				c0.016-0.024,0.332-0.532,0.653-1.046c0.162,0.143,0.343,0.218,0.527,0.218c0.667,0,1.163-0.906,1.226-2.215h7.334
				c0,0.021,0,0.043,0.001,0.064c-0.109,0.163-0.216,0.321-0.313,0.461l-1.262,1.925c-0.024,0.057-0.112,0.263-0.112,0.507
				c0,0.117,0.02,0.226,0.058,0.319c0.055,0.13,0.155,0.238,0.299,0.319c0,0.007,0.572,0.575,1.566,0.689
				c0.007,0.24,0.017,0.56,0.018,0.588c-0.006,0.016-0.243,1.541-0.243,1.541l-0.006,0.044l0.024,0.036c0,0,0.307,0.459,0.344,0.514
				c0.057,0.233,0.301,1.143,0.393,1.625l0.048,0.317C252.155,177.54,252.222,178.024,252.747,178.67L252.747,178.67z
				 M242.716,169.789c-0.067,0-0.149-0.053-0.229-0.146l0.393-0.631c0.266-0.383,0.426-0.778,0.522-1.096
				C243.388,169.062,242.99,169.789,242.716,169.789L242.716,169.789z M251.283,167.576h-5.38c0.035-0.079,0.053-0.166,0.053-0.255
				c0-0.347-0.281-0.629-0.629-0.629c-0.347,0-0.63,0.282-0.63,0.629c0,0.089,0.019,0.176,0.054,0.255h-0.81
				c-0.035-0.68-0.188-1.27-0.438-1.674c0.44-1.744,0.968-3.303,1.202-3.964h8.802c-0.362,0.727-0.915,2.019-1.146,3.508
				C251.782,165.581,251.359,166.414,251.283,167.576L251.283,167.576z M251.871,167.267c0.076-0.518,0.235-0.915,0.405-1.125
				c-0.015,0.177-0.023,0.35-0.026,0.521C252.184,166.77,252.044,166.994,251.871,167.267L251.871,167.267z"/>
			<linearGradient id="SVGID_5_" gradientUnits="userSpaceOnUse" x1="247.9307" y1="170.4219" x2="276.9506" y2="170.4219">
				<stop  offset="0" style="stop-color:#EA582F"/>
				<stop  offset="0.2088" style="stop-color:#EA582F"/>
				<stop  offset="0.2691" style="stop-color:#EB6236"/>
				<stop  offset="0.3721" style="stop-color:#EE7D49"/>
				<stop  offset="0.5046" style="stop-color:#F3A967"/>
				<stop  offset="0.5604" style="stop-color:#F5BE75"/>
				<stop  offset="0.7857" style="stop-color:#FFFFFF"/>
				<stop  offset="1" style="stop-color:#FFFFFF"/>
			</linearGradient>
			<path fill="url(#SVGID_5_)" d="M265.125,178.929h-9.711c-0.018-0.003-0.654-0.075-0.654-0.075
				c-0.857-0.001-1.454-0.602-1.478-0.63c-0.41-0.494-0.459-0.837-0.52-1.273l-0.054-0.346c-0.06-0.315-0.182-0.818-0.361-1.497
				c0.16,0.016,0.366,0.027,0.601,0.027c0.542,0,1.319-0.07,1.944-0.398c0.134-0.072,0.186-0.239,0.115-0.373
				c-0.048-0.09-0.142-0.146-0.244-0.146c-0.045,0-0.09,0.013-0.13,0.032c-0.521,0.274-1.206,0.332-1.688,0.332
				c-0.476,0-0.831-0.055-0.834-0.055l-0.009-0.002l-0.025-0.001l-0.083-0.128l0.214-1.387l-0.036-1.184l-0.003-0.109h-0.11h-0.225
				c-0.899,0-1.435-0.527-1.438-0.534l-0.037-0.035l-0.016-0.015l-0.02-0.007l-0.045-0.02c-0.007-0.004-0.012-0.019-0.012-0.048
				c0-0.063,0.021-0.144,0.04-0.195c0.016-0.021,0.805-1.229,1.104-1.683c0.213,0.792,0.622,1.271,1.102,1.271
				c0.376,0,0.712-0.293,0.943-0.824c0.168-0.39,0.273-0.894,0.299-1.426h7.97c-0.001,0.099-0.002,0.195-0.002,0.294
				c0,4.083,1.271,7.688,1.326,7.84C263.506,177.656,264.37,178.457,265.125,178.929L265.125,178.929z M252.512,169.899
				c-0.208,0-0.549-0.476-0.664-1.369c0.495-0.743,1.023-1.601,1.031-1.614l0.032-0.051l0.015-0.027v-0.031v-0.068
				c0-0.1,0.005-0.204,0.011-0.318c0.003,0.008,0.007,0.017,0.01,0.025c0.171,0.389,0.265,0.915,0.265,1.481
				c0,0.565-0.094,1.091-0.265,1.479C252.814,169.711,252.648,169.899,252.512,169.899L252.512,169.899z M261.739,167.651h-6.797
				c0.054-0.096,0.085-0.206,0.085-0.317c0-0.352-0.286-0.638-0.639-0.638c-0.352,0-0.639,0.286-0.639,0.638
				c0,0.111,0.03,0.222,0.086,0.317h-0.082c-0.025-0.538-0.129-1.03-0.299-1.427c-0.12-0.275-0.268-0.485-0.438-0.627
				c0.259-1.711,0.988-3.187,1.257-3.684h8.925C262.329,163.526,261.84,165.456,261.739,167.651L261.739,167.651z"/>
		</g>
		<g>
			<g>
				<path fill="#A22965" d="M232.724,182.619h1.239c0.951,0,1.607,0.343,1.607,1.283c0,0.699-0.368,1.05-0.944,1.21v0.015
					c0.623,0.059,1.063,0.511,1.063,1.225c0,1.094-0.813,1.356-1.745,1.356h-1.22V182.619z M233.379,184.792h0.361
					c0.636,0,1.174-0.066,1.174-0.816c0-0.605-0.466-0.759-0.846-0.759h-0.689V184.792z M233.379,187.109h0.492
					c0.591,0,1.122-0.139,1.122-0.823c0-0.787-0.623-0.896-1.188-0.896h-0.427V187.109z"/>
				<path fill="#A22965" d="M238.023,182.619h0.689l1.936,5.089h-0.715l-0.467-1.283h-2.243l-0.466,1.283h-0.689L238.023,182.619z
					 M238.345,183.305l-0.911,2.521h1.824L238.345,183.305z"/>
				<path fill="#A22965" d="M241.106,182.619h0.893l2.021,4.098h0.014v-4.098h0.656v5.089h-0.84l-2.073-4.185h-0.014v4.185h-0.656
					V182.619z"/>
				<path fill="#A22965" d="M247.621,182.532c1.391,0,2.204,1.122,2.204,2.632c0,1.545-0.808,2.631-2.204,2.631
					s-2.205-1.086-2.205-2.631C245.416,183.654,246.23,182.532,247.621,182.532z M247.621,187.153c1.057,0,1.509-0.977,1.509-1.989
					c0-1.035-0.498-1.997-1.509-1.99c-1.011-0.007-1.509,0.955-1.509,1.99C246.112,186.177,246.564,187.153,247.621,187.153z"/>
				<path fill="#A22965" d="M250.521,182.619h1.24c0.951,0,1.607,0.343,1.607,1.283c0,0.699-0.367,1.05-0.945,1.21v0.015
					c0.624,0.059,1.063,0.511,1.063,1.225c0,1.094-0.813,1.356-1.744,1.356h-1.221V182.619z M251.177,184.792h0.36
					c0.637,0,1.175-0.066,1.175-0.816c0-0.605-0.466-0.759-0.847-0.759h-0.688V184.792z M251.177,187.109h0.492
					c0.59,0,1.121-0.139,1.121-0.823c0-0.787-0.623-0.896-1.188-0.896h-0.426V187.109z"/>
				<path fill="#A22965" d="M255.821,182.619h0.688l1.936,5.089h-0.715l-0.466-1.283h-2.244l-0.465,1.283h-0.689L255.821,182.619z
					 M256.143,183.305l-0.912,2.521h1.824L256.143,183.305z"/>
				<path fill="#A22965" d="M262.388,183.523c-0.321-0.233-0.669-0.35-1.259-0.35c-1.057,0-1.759,0.853-1.759,1.99
					c0,1.195,0.774,1.989,1.726,1.989c0.453,0,0.57-0.051,0.734-0.087v-1.546h-0.964v-0.598h1.62v2.646
					c-0.249,0.096-0.683,0.227-1.396,0.227c-1.45,0-2.415-1.035-2.415-2.653c0-1.566,1.022-2.609,2.421-2.609
					c0.669,0,0.964,0.109,1.345,0.255L262.388,183.523z"/>
				<path fill="#A22965" d="M263.45,182.619h0.656v5.089h-0.656V182.619z"/>
			</g>
			<g>
				<path fill="#A22965" d="M265.72,182.535c0.132-0.024,0.305-0.044,0.525-0.044c0.27,0,0.467,0.068,0.593,0.19
					c0.116,0.109,0.185,0.276,0.185,0.481c0,0.207-0.056,0.371-0.163,0.49c-0.145,0.168-0.38,0.253-0.646,0.253
					c-0.082,0-0.157-0.004-0.22-0.021v0.921h-0.273V182.535z M265.993,183.643c0.06,0.018,0.135,0.024,0.227,0.024
					c0.329,0,0.529-0.173,0.529-0.49c0-0.304-0.197-0.451-0.499-0.451c-0.119,0-0.21,0.011-0.257,0.024V183.643z"/>
				<path fill="#A22965" d="M267.364,182.385h0.276v2.422h-0.276V182.385z"/>
				<path fill="#A22965" d="M268.946,184.807l-0.022-0.208h-0.009c-0.085,0.13-0.249,0.245-0.465,0.245
					c-0.308,0-0.465-0.235-0.465-0.474c0-0.399,0.326-0.618,0.914-0.614v-0.033c0-0.138-0.035-0.383-0.346-0.383
					c-0.141,0-0.289,0.048-0.396,0.123l-0.063-0.197c0.125-0.089,0.308-0.147,0.499-0.147c0.465,0,0.577,0.345,0.577,0.675v0.617
					c0,0.144,0.007,0.283,0.025,0.396H268.946z M268.905,183.964c-0.302-0.007-0.644,0.051-0.644,0.372
					c0,0.194,0.119,0.286,0.261,0.286c0.197,0,0.323-0.136,0.367-0.276c0.01-0.03,0.016-0.064,0.016-0.096V183.964z"/>
				<path fill="#A22965" d="M269.579,184.5c0.082,0.057,0.227,0.118,0.364,0.118c0.201,0,0.295-0.108,0.295-0.245
					c0-0.144-0.078-0.222-0.282-0.304c-0.273-0.105-0.402-0.269-0.402-0.467c0-0.266,0.198-0.484,0.525-0.484
					c0.153,0,0.288,0.048,0.373,0.103l-0.069,0.218c-0.059-0.041-0.169-0.095-0.311-0.095c-0.163,0-0.254,0.102-0.254,0.225
					c0,0.136,0.091,0.198,0.288,0.279c0.264,0.109,0.398,0.253,0.398,0.498c0,0.29-0.206,0.494-0.567,0.494
					c-0.166,0-0.32-0.044-0.427-0.111L269.579,184.5z"/>
				<path fill="#A22965" d="M271.192,182.682v0.474h0.396v0.229h-0.396v0.891c0,0.205,0.054,0.32,0.207,0.32
					c0.073,0,0.126-0.01,0.16-0.021l0.013,0.225c-0.054,0.024-0.138,0.041-0.244,0.041c-0.129,0-0.233-0.044-0.299-0.125
					c-0.078-0.09-0.106-0.235-0.106-0.43v-0.901h-0.235v-0.229h0.235v-0.396L271.192,182.682z"/>
				<path fill="#A22965" d="M272.206,182.692c0.003,0.102-0.066,0.184-0.176,0.184c-0.097,0-0.167-0.082-0.167-0.184
					c0-0.106,0.072-0.188,0.173-0.188C272.14,182.505,272.206,182.586,272.206,182.692z M271.898,184.807v-1.651h0.276v1.651
					H271.898z"/>
				<path fill="#A22965" d="M273.716,184.745c-0.072,0.041-0.232,0.095-0.437,0.095c-0.458,0-0.757-0.337-0.757-0.842
					c0-0.509,0.32-0.877,0.816-0.877c0.163,0,0.308,0.045,0.384,0.086l-0.063,0.231c-0.066-0.041-0.17-0.078-0.32-0.078
					c-0.348,0-0.537,0.279-0.537,0.624c0,0.382,0.227,0.617,0.527,0.617c0.157,0,0.261-0.045,0.34-0.082L273.716,184.745z"/>
				<path fill="#A22965" d="M265.682,187.228c0.123,0.082,0.302,0.149,0.49,0.149c0.279,0,0.442-0.16,0.442-0.392
					c0-0.215-0.112-0.338-0.398-0.457c-0.346-0.134-0.559-0.327-0.559-0.651c0-0.358,0.273-0.624,0.685-0.624
					c0.217,0,0.373,0.054,0.468,0.112l-0.075,0.242c-0.069-0.041-0.211-0.109-0.402-0.109c-0.289,0-0.398,0.188-0.398,0.345
					c0,0.215,0.129,0.32,0.42,0.443c0.358,0.149,0.54,0.338,0.54,0.676c0,0.354-0.241,0.661-0.74,0.661
					c-0.204,0-0.427-0.064-0.54-0.146L265.682,187.228z"/>
				<path fill="#A22965" d="M268.529,187.139c0,0.171,0.003,0.32,0.013,0.449h-0.245l-0.017-0.269h-0.006
					c-0.072,0.133-0.232,0.307-0.502,0.307c-0.239,0-0.524-0.144-0.524-0.723v-0.965h0.276v0.913c0,0.314,0.088,0.525,0.339,0.525
					c0.186,0,0.314-0.14,0.364-0.272c0.016-0.044,0.025-0.099,0.025-0.153v-1.013h0.276V187.139z"/>
				<path fill="#A22965" d="M268.986,186.453c0-0.194-0.003-0.361-0.012-0.515h0.241l0.009,0.323h0.013
					c0.069-0.222,0.236-0.361,0.421-0.361c0.032,0,0.053,0.004,0.078,0.011v0.282c-0.028-0.007-0.056-0.009-0.094-0.009
					c-0.194,0-0.332,0.159-0.37,0.385c-0.007,0.041-0.013,0.089-0.013,0.14v0.879h-0.273V186.453z"/>
				<path fill="#A22965" d="M271.297,185.938c-0.007,0.119-0.013,0.252-0.013,0.453v0.958c0,0.379-0.069,0.61-0.217,0.754
					c-0.147,0.15-0.361,0.198-0.553,0.198c-0.183,0-0.383-0.048-0.505-0.137l0.069-0.229c0.101,0.068,0.257,0.13,0.445,0.13
					c0.282,0,0.489-0.16,0.489-0.577v-0.184h-0.006c-0.085,0.153-0.247,0.276-0.483,0.276c-0.377,0-0.646-0.348-0.646-0.805
					c0-0.56,0.336-0.877,0.685-0.877c0.263,0,0.408,0.149,0.474,0.286h0.006l0.013-0.248H271.297z M271.011,186.59
					c0-0.052-0.003-0.096-0.016-0.137c-0.05-0.175-0.185-0.317-0.387-0.317c-0.264,0-0.451,0.242-0.451,0.624
					c0,0.324,0.15,0.593,0.448,0.593c0.17,0,0.323-0.115,0.384-0.306c0.015-0.052,0.021-0.109,0.021-0.16V186.59z"/>
				<path fill="#A22965" d="M271.896,186.817c0.006,0.406,0.244,0.573,0.521,0.573c0.197,0,0.316-0.038,0.42-0.085l0.048,0.215
					c-0.098,0.048-0.265,0.103-0.506,0.103c-0.468,0-0.747-0.334-0.747-0.833c0-0.497,0.27-0.89,0.712-0.89
					c0.496,0,0.629,0.475,0.629,0.778c0,0.061-0.007,0.108-0.01,0.139H271.896z M272.705,186.603
					c0.003-0.19-0.072-0.487-0.383-0.487c-0.279,0-0.401,0.279-0.424,0.487H272.705z"/>
				<path fill="#A22965" d="M273.313,186.453c0-0.194-0.003-0.361-0.013-0.515h0.242l0.01,0.323h0.012
					c0.069-0.222,0.235-0.361,0.421-0.361c0.031,0,0.054,0.004,0.079,0.011v0.282c-0.029-0.007-0.057-0.009-0.095-0.009
					c-0.194,0-0.333,0.159-0.37,0.385c-0.007,0.041-0.013,0.089-0.013,0.14v0.879h-0.273V186.453z"/>
				<path fill="#A22965" d="M274.519,185.938l0.333,0.976c0.034,0.108,0.072,0.238,0.098,0.338h0.006
					c0.028-0.1,0.06-0.227,0.098-0.346l0.301-0.968h0.292l-0.414,1.176c-0.198,0.566-0.333,0.856-0.521,1.033
					c-0.135,0.131-0.27,0.182-0.339,0.194l-0.069-0.252c0.069-0.023,0.16-0.071,0.242-0.146c0.075-0.065,0.17-0.181,0.232-0.334
					c0.013-0.031,0.021-0.055,0.021-0.072c0-0.017-0.006-0.04-0.019-0.078l-0.563-1.521H274.519z"/>
			</g>
		</g>
	</g>
</g>
</svg>
